<svg width="142" height="32" viewBox="0 0 142 32" fill="none" xmlns="http://www.w3.org/2000/svg">
<path d="M53.3283 9.87729V24.9788H49.5733V15.9223L46.1242 24.9788H43.0913L39.6196 15.9002V24.9788H35.8646V9.87729H40.302L44.629 20.3314L48.9135 9.87729H53.3283Z" fill="white"/>
<path d="M59.2523 24.4021C58.3028 23.9128 57.5165 23.1669 56.9869 22.253C56.4205 21.2543 56.1361 20.1258 56.1629 18.9837C56.1385 17.8431 56.4269 16.717 56.9982 15.7227C57.534 14.804 58.3269 14.0544 59.2835 13.5626C60.2938 13.0649 61.4091 12.8057 62.54 12.8057C63.671 12.8057 64.7863 13.0649 65.7966 13.5626C66.7523 14.0556 67.545 14.8048 68.0819 15.7227C68.6513 16.7176 68.9387 17.8435 68.9144 18.9837C68.9371 20.125 68.6435 21.251 68.0649 22.2419C67.521 23.1632 66.7192 23.9128 65.7541 24.4021C64.7471 24.9136 63.6263 25.1728 62.4919 25.1563C61.3646 25.1744 60.2507 24.9151 59.2523 24.4021ZM64.3269 21.1993C64.831 20.6835 65.0858 19.9432 65.0858 18.9809C65.0858 18.0187 64.8395 17.2811 64.3496 16.7626C64.1165 16.5191 63.8349 16.3251 63.5222 16.1924C63.2095 16.0597 62.8723 15.9913 62.5316 15.9913C62.1908 15.9913 61.8536 16.0597 61.5409 16.1924C61.2282 16.3251 60.9466 16.5191 60.7135 16.7626C60.2284 17.2709 59.9867 18.0104 59.9886 18.9809C59.9886 19.9404 60.2265 20.6808 60.7022 21.1993C60.9246 21.4486 61.2001 21.6471 61.5093 21.7808C61.8186 21.9144 62.154 21.98 62.4919 21.973C62.8366 21.977 63.1782 21.9096 63.4944 21.7754C63.8107 21.6411 64.0943 21.4429 64.3269 21.1938V21.1993Z" fill="white"/>
<path d="M82.6514 14.2114C83.5066 15.1247 83.9351 16.3762 83.937 17.966V24.9788H80.2019V18.4596C80.2469 17.7796 80.0216 17.1089 79.5732 16.5879C79.1095 16.1607 78.4967 15.9228 77.86 15.9228C77.2233 15.9228 76.6106 16.1607 76.1468 16.5879C75.6953 17.1077 75.467 17.7785 75.5096 18.4596V24.9788H71.7433V12.9747H75.5011V14.5664C75.8947 14.025 76.4244 13.5923 77.0388 13.3102C77.7172 12.9928 78.4618 12.8343 79.2136 12.8471C80.6503 12.8471 81.7962 13.3019 82.6514 14.2114Z" fill="white"/>
<path d="M99.0106 19.86H90.5153C90.5276 20.5008 90.7912 21.1124 91.2515 21.5681C91.6824 21.9638 92.2553 22.177 92.8458 22.1615C93.7897 22.1615 94.441 21.7742 94.7997 20.9997H98.7982C98.5964 21.7822 98.217 22.5101 97.6882 23.1293C97.1427 23.7679 96.4549 24.2755 95.6776 24.6128C94.8271 24.9804 93.9056 25.1639 92.9761 25.1508C91.8588 25.1738 90.7542 24.916 89.7677 24.4021C88.8378 23.9097 88.0742 23.163 87.5702 22.253C87.0256 21.2474 86.7536 20.1217 86.7801 18.9837C86.7521 17.8469 87.0201 16.7218 87.5589 15.7144C88.0562 14.8026 88.8165 14.0543 89.745 13.5626C90.7382 13.0468 91.8492 12.7873 92.9732 12.8083C94.0737 12.7879 95.1617 13.0397 96.1363 13.5404C97.0475 14.0169 97.7988 14.741 98.2998 15.6256C98.8378 16.5955 99.1072 17.6862 99.0814 18.7896C99.0779 19.1474 99.0542 19.5047 99.0106 19.86ZM95.2302 17.8163C95.2441 17.5338 95.1931 17.2518 95.0809 16.9912C94.9686 16.7306 94.798 16.498 94.5817 16.3106C94.1213 15.9325 93.5341 15.7349 92.9336 15.756C92.353 15.7394 91.7862 15.9307 91.3393 16.2939C90.8881 16.6884 90.6025 17.2329 90.5379 17.8218L95.2302 17.8163Z" fill="white"/>
<path d="M107.325 13.4156C107.991 13.0342 108.751 12.8376 109.522 12.8471V16.7293H108.489C107.545 16.7293 106.842 16.9262 106.382 17.3199C105.921 17.7137 105.683 18.4106 105.668 19.4107V24.9788H101.913V12.9747H105.668V14.974C106.088 14.3344 106.655 13.8006 107.325 13.4156Z" fill="white"/>
<path d="M113.13 15.7088C113.626 14.7999 114.382 14.0522 115.305 13.557C116.287 13.0419 117.388 12.7822 118.502 12.8028C119.887 12.7556 121.247 13.1734 122.356 13.9868C123.418 14.8221 124.14 16.0027 124.389 17.3144H120.391C120.275 16.8996 120.019 16.5359 119.663 16.2836C119.308 16.0314 118.875 15.9059 118.437 15.9279C118.118 15.9175 117.801 15.9836 117.513 16.1203C117.226 16.2571 116.977 16.4604 116.789 16.7126C116.377 17.2377 116.172 17.9873 116.174 18.9615C116.174 19.9348 116.378 20.6863 116.789 21.2076C116.977 21.4599 117.226 21.6632 117.513 21.7999C117.801 21.9367 118.118 22.0028 118.437 21.9924C118.875 22.0144 119.308 21.8888 119.663 21.6366C120.019 21.3844 120.275 21.0207 120.391 20.6059H124.389C124.132 21.9173 123.407 23.0965 122.345 23.9334C121.243 24.7556 119.886 25.1807 118.502 25.1369C117.389 25.1648 116.288 24.9117 115.305 24.4021C114.382 23.9079 113.626 23.1611 113.13 22.253C112.592 21.2455 112.324 20.1205 112.351 18.9837C112.322 17.845 112.59 16.7179 113.13 15.7088Z" fill="white"/>
<path d="M139.463 19.86H130.967C130.98 20.5008 131.243 21.1124 131.704 21.5681C132.134 21.9638 132.707 22.177 133.298 22.1615C134.242 22.1615 134.893 21.7742 135.252 20.9996H139.25C139.048 21.7822 138.669 22.5101 138.14 23.1293C137.595 23.7673 136.909 24.2748 136.133 24.6128C135.19 25.0036 134.172 25.1872 133.149 25.1508C132.127 25.1144 131.125 24.8588 130.214 24.4021C129.284 23.9096 128.521 23.163 128.017 22.253C127.472 21.2473 127.2 20.1217 127.227 18.9837C127.195 17.8457 127.46 16.7186 127.997 15.7088C128.494 14.7971 129.254 14.0488 130.183 13.557C131.176 13.0413 132.287 12.7817 133.411 12.8028C134.512 12.7823 135.6 13.0341 136.574 13.5348C137.492 14.0092 138.25 14.7333 138.758 15.6201C139.293 16.5907 139.562 17.6811 139.536 18.784C139.532 19.1437 139.507 19.5029 139.463 19.86ZM135.682 17.8163C135.695 17.5331 135.643 17.2507 135.529 16.9901C135.415 16.7294 135.243 16.4972 135.025 16.3106C134.565 15.9316 133.978 15.7338 133.377 15.756C132.797 15.7394 132.23 15.9307 131.783 16.2939C131.332 16.6884 131.046 17.2329 130.982 17.8218L135.682 17.8163Z" fill="white"/>
<path d="M16.1355 20.4478V14.7189L5.22749 4.03745L2.1012 7.0988L12.2843 29.1328H16.1582L7.96583 12.4617L16.1355 20.4478Z" fill="#F6C834"/>
<path d="M30.1897 7.06274L19.9953 29.1272H16.1157L16.1214 29.1133L16.1355 29.0718L24.3222 12.434L16.1355 20.4478V14.7189L27.0634 3.99307L30.1897 7.06274Z" fill="#F8E5A8"/>
</svg>
