<svg width="62" height="62" viewBox="0 0 62 62" fill="none" xmlns="http://www.w3.org/2000/svg">
<rect x="15.0295" y="0.60614" width="48" height="48" rx="10" transform="rotate(15 15.0295 0.60614)" fill="#6D5696"/>
<g filter="url(#filter0_b_596_2106)">
<rect y="14" width="48" height="48" rx="10" fill="white" fill-opacity="0.6"/>
<path d="M18.0944 37.2288C18.0322 36.8282 18 36.4179 18 36C18 31.5817 21.6052 28 26.0526 28C30.4999 28 34.1052 31.5817 34.1052 36C34.1052 36.9981 33.9213 37.9535 33.5852 38.8345C33.5154 39.0175 33.4804 39.109 33.4646 39.1804C33.4489 39.2512 33.4428 39.301 33.4411 39.3735C33.4394 39.4466 33.4493 39.5272 33.4692 39.6883L33.8717 42.9585C33.9153 43.3125 33.9371 43.4895 33.8782 43.6182C33.8266 43.731 33.735 43.8205 33.6211 43.8695C33.4911 43.9254 33.3146 43.8995 32.9617 43.8478L29.7765 43.3809C29.6101 43.3565 29.527 43.3443 29.4512 43.3448C29.3763 43.3452 29.3245 43.3507 29.2511 43.3661C29.177 43.3817 29.0823 43.4172 28.893 43.4881C28.0097 43.819 27.0524 44 26.0526 44C25.6344 44 25.2237 43.9683 24.8227 43.9073M19.6316 48C22.5965 48 25 45.5376 25 42.5C25 39.4624 22.5965 37 19.6316 37C16.6667 37 14.2632 39.4624 14.2632 42.5C14.2632 43.1106 14.3603 43.6979 14.5395 44.2467C14.6153 44.4787 14.6532 44.5947 14.6657 44.6739C14.6786 44.7567 14.6809 44.8031 14.6761 44.8867C14.6714 44.9668 14.6514 45.0573 14.6113 45.2383L14 48L16.9948 47.591C17.1583 47.5687 17.24 47.5575 17.3114 47.558C17.3865 47.5585 17.4264 47.5626 17.5001 47.5773C17.5701 47.5912 17.6742 47.6279 17.8823 47.7014C18.4306 47.8949 19.0191 48 19.6316 48Z" stroke="#492C7C" stroke-width="1.5" stroke-linecap="round" stroke-linejoin="round"/>
<rect x="0.5" y="14.5" width="47" height="47" rx="9.5" stroke="white" stroke-opacity="0.6"/>
</g>
<defs>
<filter id="filter0_b_596_2106" x="-16" y="-2" width="80" height="80" filterUnits="userSpaceOnUse" color-interpolation-filters="sRGB">
<feFlood flood-opacity="0" result="BackgroundImageFix"/>
<feGaussianBlur in="BackgroundImageFix" stdDeviation="8"/>
<feComposite in2="SourceAlpha" operator="in" result="effect1_backgroundBlur_596_2106"/>
<feBlend mode="normal" in="SourceGraphic" in2="effect1_backgroundBlur_596_2106" result="shape"/>
</filter>
</defs>
</svg>
