<svg width="49" height="48" viewBox="0 0 49 48" fill="none" xmlns="http://www.w3.org/2000/svg">
<rect x="0.666687" width="48" height="48" rx="10" fill="#DBD5E5"/>
<path d="M24.6667 18V34M24.6667 18H21.131C20.61 18 20.1104 17.7893 19.742 17.4142C19.3736 17.0391 19.1667 16.5304 19.1667 16C19.1667 15.4696 19.3736 14.9609 19.742 14.5858C20.1104 14.2107 20.61 14 21.131 14C23.881 14 24.6667 18 24.6667 18ZM24.6667 18H28.2024C28.7234 18 29.223 17.7893 29.5914 17.4142C29.9597 17.0391 30.1667 16.5304 30.1667 16C30.1667 15.4696 29.9597 14.9609 29.5914 14.5858C29.223 14.2107 28.7234 14 28.2024 14C25.4524 14 24.6667 18 24.6667 18ZM32.6667 23V30.8C32.6667 31.9201 32.6667 32.4802 32.4487 32.908C32.257 33.2843 31.951 33.5903 31.5747 33.782C31.1468 34 30.5868 34 29.4667 34L19.8667 34C18.7466 34 18.1865 34 17.7587 33.782C17.3824 33.5903 17.0764 33.2843 16.8847 32.908C16.6667 32.4802 16.6667 31.9201 16.6667 30.8V23M14.6667 19.6L14.6667 21.4C14.6667 21.9601 14.6667 22.2401 14.7757 22.454C14.8716 22.6422 15.0245 22.7951 15.2127 22.891C15.4266 23 15.7066 23 16.2667 23L33.0667 23C33.6267 23 33.9068 23 34.1207 22.891C34.3088 22.7951 34.4618 22.6422 34.5577 22.454C34.6667 22.2401 34.6667 21.9601 34.6667 21.4V19.6C34.6667 19.0399 34.6667 18.7599 34.5577 18.546C34.4618 18.3578 34.3088 18.2049 34.1207 18.109C33.9068 18 33.6267 18 33.0667 18L16.2667 18C15.7066 18 15.4266 18 15.2127 18.109C15.0245 18.2049 14.8716 18.3578 14.7757 18.546C14.6667 18.7599 14.6667 19.0399 14.6667 19.6Z" stroke="#492C7C" stroke-width="1.5" stroke-linecap="round" stroke-linejoin="round"/>
</svg>
