<svg width="49" height="48" viewBox="0 0 49 48" fill="none" xmlns="http://www.w3.org/2000/svg">
<rect x="0.333344" width="48" height="48" rx="10" fill="#DBD5E5"/>
<path d="M33.3333 33H16.9333C16.3733 33 16.0933 33 15.8794 32.891C15.6912 32.7951 15.5382 32.6422 15.4423 32.454C15.3333 32.2401 15.3333 31.9601 15.3333 31.4V15M33.3333 19L27.899 24.4343C27.701 24.6323 27.602 24.7313 27.4879 24.7684C27.3874 24.8011 27.2793 24.8011 27.1788 24.7684C27.0647 24.7313 26.9657 24.6323 26.7677 24.4343L24.899 22.5657C24.701 22.3677 24.602 22.2687 24.4879 22.2316C24.3874 22.1989 24.2793 22.1989 24.1788 22.2316C24.0647 22.2687 23.9657 22.3677 23.7677 22.5657L19.3333 27M33.3333 19H29.3333M33.3333 19V23" stroke="#492C7C" stroke-width="1.5" stroke-linecap="round" stroke-linejoin="round"/>
</svg>
