<svg width="48" height="48" viewBox="0 0 48 48" fill="none" xmlns="http://www.w3.org/2000/svg">
<rect width="48" height="48" rx="10" fill="#DBD5E5"/>
<path d="M28 20.0001V16.5007C28 15.669 28 15.2531 27.8248 14.9975C27.6717 14.7743 27.4346 14.6226 27.1678 14.5772C26.8623 14.5252 26.4847 14.6994 25.7295 15.048L16.859 19.1421C16.1855 19.4529 15.8488 19.6083 15.6021 19.8494C15.3841 20.0625 15.2176 20.3226 15.1155 20.6099C15 20.9349 15 21.3058 15 22.0475V27.0001M28.5 26.5001H28.51M15 23.2001L15 29.8001C15 30.9202 15 31.4802 15.218 31.9081C15.4097 32.2844 15.7157 32.5903 16.092 32.7821C16.5198 33.0001 17.0799 33.0001 18.2 33.0001H29.8C30.9201 33.0001 31.4802 33.0001 31.908 32.7821C32.2843 32.5903 32.5903 32.2844 32.782 31.9081C33 31.4802 33 30.9202 33 29.8001V23.2001C33 22.08 33 21.5199 32.782 21.0921C32.5903 20.7158 32.2843 20.4098 31.908 20.2181C31.4802 20.0001 30.9201 20.0001 29.8 20.0001L18.2 20.0001C17.0799 20.0001 16.5198 20.0001 16.092 20.2181C15.7157 20.4098 15.4097 20.7158 15.218 21.0921C15 21.5199 15 22.08 15 23.2001ZM29 26.5001C29 26.7762 28.7761 27.0001 28.5 27.0001C28.2239 27.0001 28 26.7762 28 26.5001C28 26.2239 28.2239 26.0001 28.5 26.0001C28.7761 26.0001 29 26.2239 29 26.5001Z" stroke="#492C7C" stroke-width="1.5" stroke-linecap="round" stroke-linejoin="round"/>
</svg>
