<svg width="33" height="32" viewBox="0 0 33 32" fill="none" xmlns="http://www.w3.org/2000/svg">
<rect x="2.66699" y="2" width="28" height="28" rx="6" fill="url(#paint0_radial_84_42800)"/>
<rect x="2.66699" y="2" width="28" height="28" rx="6" fill="url(#paint1_radial_84_42800)"/>
<rect x="2.66699" y="2" width="28" height="28" rx="6" fill="url(#paint2_radial_84_42800)"/>
<path d="M23.667 10.5C23.667 11.3284 22.9954 12 22.167 12C21.3386 12 20.667 11.3284 20.667 10.5C20.667 9.67157 21.3386 9 22.167 9C22.9954 9 23.667 9.67157 23.667 10.5Z" fill="white"/>
<path fill-rule="evenodd" clip-rule="evenodd" d="M16.667 21C19.4284 21 21.667 18.7614 21.667 16C21.667 13.2386 19.4284 11 16.667 11C13.9056 11 11.667 13.2386 11.667 16C11.667 18.7614 13.9056 21 16.667 21ZM16.667 19C18.3238 19 19.667 17.6569 19.667 16C19.667 14.3431 18.3238 13 16.667 13C15.0101 13 13.667 14.3431 13.667 16C13.667 17.6569 15.0101 19 16.667 19Z" fill="white"/>
<path fill-rule="evenodd" clip-rule="evenodd" d="M6.66699 15.6C6.66699 12.2397 6.66699 10.5595 7.32095 9.27606C7.89619 8.14708 8.81408 7.2292 9.94305 6.65396C11.2265 6 12.9067 6 16.267 6H17.067C20.4273 6 22.1075 6 23.3909 6.65396C24.5199 7.2292 25.4378 8.14708 26.013 9.27606C26.667 10.5595 26.667 12.2397 26.667 15.6V16.4C26.667 19.7603 26.667 21.4405 26.013 22.7239C25.4378 23.8529 24.5199 24.7708 23.3909 25.346C22.1075 26 20.4273 26 17.067 26H16.267C12.9067 26 11.2265 26 9.94305 25.346C8.81408 24.7708 7.89619 23.8529 7.32095 22.7239C6.66699 21.4405 6.66699 19.7603 6.66699 16.4V15.6ZM16.267 8H17.067C18.7802 8 19.9447 8.00156 20.8449 8.0751C21.7217 8.14674 22.1702 8.27659 22.483 8.43597C23.2356 8.81947 23.8475 9.43139 24.231 10.184C24.3904 10.4968 24.5202 10.9452 24.5919 11.8221C24.6654 12.7223 24.667 13.8868 24.667 15.6V16.4C24.667 18.1132 24.6654 19.2777 24.5919 20.1779C24.5202 21.0548 24.3904 21.5032 24.231 21.816C23.8475 22.5686 23.2356 23.1805 22.483 23.564C22.1702 23.7234 21.7217 23.8533 20.8449 23.9249C19.9447 23.9984 18.7802 24 17.067 24H16.267C14.5538 24 13.3892 23.9984 12.4891 23.9249C11.6122 23.8533 11.1638 23.7234 10.851 23.564C10.0984 23.1805 9.48646 22.5686 9.10297 21.816C8.94359 21.5032 8.81374 21.0548 8.7421 20.1779C8.66855 19.2777 8.66699 18.1132 8.66699 16.4V15.6C8.66699 13.8868 8.66855 12.7223 8.7421 11.8221C8.81374 10.9452 8.94359 10.4968 9.10297 10.184C9.48646 9.43139 10.0984 8.81947 10.851 8.43597C11.1638 8.27659 11.6122 8.14674 12.4891 8.0751C13.3892 8.00156 14.5538 8 16.267 8Z" fill="white"/>
<defs>
<radialGradient id="paint0_radial_84_42800" cx="0" cy="0" r="1" gradientUnits="userSpaceOnUse" gradientTransform="translate(12.667 23) rotate(-55.3758) scale(25.5196)">
<stop stop-color="#B13589"/>
<stop offset="0.79309" stop-color="#C62F94"/>
<stop offset="1" stop-color="#8A3AC8"/>
</radialGradient>
<radialGradient id="paint1_radial_84_42800" cx="0" cy="0" r="1" gradientUnits="userSpaceOnUse" gradientTransform="translate(11.667 31) rotate(-65.1363) scale(22.5942)">
<stop stop-color="#E0E8B7"/>
<stop offset="0.444662" stop-color="#FB8A2E"/>
<stop offset="0.71474" stop-color="#E2425C"/>
<stop offset="1" stop-color="#E2425C" stop-opacity="0"/>
</radialGradient>
<radialGradient id="paint2_radial_84_42800" cx="0" cy="0" r="1" gradientUnits="userSpaceOnUse" gradientTransform="translate(1.16699 3) rotate(-8.1301) scale(38.8909 8.31836)">
<stop offset="0.156701" stop-color="#406ADC"/>
<stop offset="0.467799" stop-color="#6A45BE"/>
<stop offset="1" stop-color="#6A45BE" stop-opacity="0"/>
</radialGradient>
</defs>
</svg>
