<svg width="33" height="32" viewBox="0 0 33 32" fill="none" xmlns="http://www.w3.org/2000/svg">
<path fill-rule="evenodd" clip-rule="evenodd" d="M16.333 31C24.065 31 30.333 24.732 30.333 17C30.333 9.26801 24.065 3 16.333 3C8.60102 3 2.33301 9.26801 2.33301 17C2.33301 19.5109 2.994 21.8674 4.15148 23.905L2.33301 31L9.64787 29.3038C11.6344 30.3854 13.9119 31 16.333 31ZM16.333 28.8462C22.8755 28.8462 28.1792 23.5425 28.1792 17C28.1792 10.4576 22.8755 5.15385 16.333 5.15385C9.79056 5.15385 4.48685 10.4576 4.48685 17C4.48685 19.5261 5.27751 21.8675 6.62485 23.7902L5.56378 27.7692L9.61294 26.7569C11.5224 28.0746 13.8376 28.8462 16.333 28.8462Z" fill="#BFC8D0"/>
<path d="M28.333 16C28.333 22.6274 22.9604 28 16.333 28C13.8052 28 11.4599 27.2184 9.52566 25.8837L5.42392 26.9091L6.49877 22.8784C5.13393 20.9307 4.33301 18.5589 4.33301 16C4.33301 9.37258 9.70559 4 16.333 4C22.9604 4 28.333 9.37258 28.333 16Z" fill="url(#paint0_linear_84_42755)"/>
<path fill-rule="evenodd" clip-rule="evenodd" d="M16.333 30C24.065 30 30.333 23.732 30.333 16C30.333 8.26801 24.065 2 16.333 2C8.60102 2 2.33301 8.26801 2.33301 16C2.33301 18.5109 2.994 20.8674 4.15148 22.905L2.33301 30L9.64787 28.3038C11.6344 29.3854 13.9119 30 16.333 30ZM16.333 27.8462C22.8755 27.8462 28.1792 22.5425 28.1792 16C28.1792 9.45755 22.8755 4.15385 16.333 4.15385C9.79056 4.15385 4.48685 9.45755 4.48685 16C4.48685 18.5261 5.27751 20.8675 6.62485 22.7902L5.56378 26.7692L9.61294 25.7569C11.5224 27.0746 13.8376 27.8462 16.333 27.8462Z" fill="white"/>
<path d="M12.833 9.50001C12.5002 8.83143 11.9895 8.89062 11.4737 8.89062C10.5518 8.89062 9.11426 9.9949 9.11426 12.0501C9.11426 13.7344 9.85646 15.5782 12.3574 18.3362C14.771 20.998 17.9424 22.3749 20.5752 22.3281C23.208 22.2812 23.7497 20.0156 23.7497 19.2504C23.7497 18.9113 23.5393 18.7421 23.3943 18.6961C22.4971 18.2656 20.8423 17.4633 20.4658 17.3125C20.0893 17.1618 19.8927 17.3657 19.7705 17.4766C19.4291 17.802 18.7523 18.7609 18.5205 18.9766C18.2888 19.1923 17.9433 19.0831 17.7995 19.0016C17.2704 18.7893 15.8359 18.1512 14.6925 17.0427C13.2783 15.6719 13.1953 15.2003 12.9289 14.7804C12.7158 14.4446 12.8722 14.2385 12.9502 14.1484C13.2549 13.7969 13.6756 13.2541 13.8643 12.9844C14.0529 12.7147 13.9032 12.3051 13.8133 12.0501C13.4268 10.9531 13.0993 10.0349 12.833 9.50001Z" fill="white"/>
<defs>
<linearGradient id="paint0_linear_84_42755" x1="26.833" y1="7" x2="4.33301" y2="28" gradientUnits="userSpaceOnUse">
<stop stop-color="#5BD066"/>
<stop offset="1" stop-color="#27B43E"/>
</linearGradient>
</defs>
</svg>
